# xmcd
#
# Track frame offsets:
#	150
#	23985
#	51810
#	83287
#	104592
#	131900
#	151935
#	169680
#	186522
#	208062
#	220562
#	245612
#
# Disc length: 3486 seconds
# Revision: 2
# Processed by: cddbd v1.5.2PL0 Copyright (c) Steve Scherf et al.
# Submitted via: dBpowerAMP V12.0
#
DISCID=a30d9c0c
DTITLE=Eddie King - Another Cow's Dead
DYEAR=1997
DGENRE=Blues
TTITLE0=Kitty Kat
TTITLE1=Angel of Mercy
TTITLE2=I Like The Feeling
TTITLE3=Yonders Wall
TTITLE4=Another Cow Dead Tonight
TTITLE5=How Long Are You Going to be Gone
TTITLE6=Walk Right on in
TTITLE7=Never Loved a Woman
TTITLE8=Losin' Boy
TTITLE9=Pocketful of Blues
TTITLE10=If Loving You is Wrong
TTITLE11=Hey Mr. Bluesman
EXTD=
EXTT0=
EXTT1=
EXTT2=
EXTT3=
EXTT4=
EXTT5=
EXTT6=
EXTT7=
EXTT8=
EXTT9=
EXTT10=
EXTT11=
PLAYORDER=
